<svg xmlns="http://www.w3.org/2000/svg" viewBox="0 0 64 64" fill="none">
  <rect width="64" height="64" fill="#FFFFFF"/>
  <path
    stroke="#3F72AF"
    stroke-width="2.4"
    stroke-linecap="round"
    stroke-linejoin="round"
    d="M32 5c-12.5 0-22 9.2-22 23.5S19.5 59 32 59s22-16 22-30.5S44.5 5 32 5Z"
  />
  <path stroke="#3F72AF" stroke-width="2.2" stroke-linecap="round" d="M15 24h34"/>
  <path
    stroke="#3F72AF"
    stroke-width="2.2"
    stroke-linecap="round"
    stroke-linejoin="round"
    d="M17.5 29.5c3.2-2.2 8.8-2.2 12 0 1.2.8 1.2 2.2 0 3-3.2 2.2-8.8 2.2-12 0-1.2-.8-1.2-2.2 0-3Z"
  />
  <path
    stroke="#3F72AF"
    stroke-width="2.2"
    stroke-linecap="round"
    stroke-linejoin="round"
    d="M34.5 29.5c3.2-2.2 8.8-2.2 12 0 1.2.8 1.2 2.2 0 3-3.2 2.2-8.8 2.2-12 0-1.2-.8-1.2-2.2 0-3Z"
  />
  <path
    stroke="#3F72AF"
    stroke-width="2.2"
    stroke-linecap="round"
    stroke-linejoin="round"
    d="M32 24v14.5M26.5 38.5h11"
  />
  <path
    stroke="#3F72AF"
    stroke-width="2.2"
    stroke-linecap="round"
    d="M23 46.5c2.8 2.2 6.4 3.2 9 3.2s6.2-1 9-3.2"
  />
</svg>
