<svg width="256" height="256" viewBox="0 0 256 256" fill="none" xmlns="http://www.w3.org/2000/svg">
  <circle cx="128" cy="128" r="116" fill="#EEF2FF"/>
  <path d="M52 92C52 79.85 61.85 70 74 70H114L130 88H182C194.15 88 204 97.85 204 110V168C204 180.15 194.15 190 182 190H74C61.85 190 52 180.15 52 168V92Z" fill="#1E40AF"/>
  <path d="M52 116C52 103.85 61.85 94 74 94H182C194.15 94 204 103.85 204 116V168C204 180.15 194.15 190 182 190H74C61.85 190 52 180.15 52 168V116Z" fill="#2563EB"/>
  <path d="M66 115C66 109.477 70.4772 105 76 105H180C185.523 105 190 109.477 190 115V122H66V115Z" fill="#60A5FA"/>
  <path d="M52 126H204V168C204 180.15 194.15 190 182 190H74C61.85 190 52 180.15 52 168V126Z" fill="#3B82F6"/>
  <rect x="51" y="93" width="154" height="98" rx="22" stroke="#1E3A8A" stroke-width="6"/>
</svg>
